<svg version="1.1" id="Layer_1" fillRule="evenodd" clipRule="evenodd" className="fill-current" xmlns="http://www.w3.org/2000/svg" xmlns:xlink="http://www.w3.org/1999/xlink" x="0px" y="0px"
	 width="100%" viewBox="0 0 633 484" enable-background="new 0 0 633 484" xml:space="preserve">
<path fill="#FEFEFE" opacity="0.000000" stroke="none" 
	d="
M634.000000,171.000000 
	C634.000000,276.000000 634.000000,380.499969 634.000000,485.000000 
	C423.000031,485.000000 212.000076,485.000000 1.000085,485.000000 
	C1.000057,323.666718 1.000057,162.333450 1.000028,1.000128 
	C211.999924,1.000085 422.999847,1.000085 633.999878,1.000043 
	C634.000000,57.500000 634.000000,114.000000 634.000000,171.000000 
M548.677795,30.428244 
	C546.988708,29.950565 545.299805,29.055231 543.610535,29.054541 
	C378.637543,28.986994 213.664520,28.986952 48.691513,28.989302 
	C47.194874,28.989323 45.690090,29.015520 44.212055,29.206818 
	C44.030109,29.230366 43.991028,30.357716 43.714077,31.701241 
	C48.408554,39.749176 53.379520,47.653221 57.675758,55.908413 
	C59.691563,59.781784 62.102341,60.773552 66.236610,60.770515 
	C207.730331,60.666557 349.224152,60.683807 490.717957,60.695137 
	C492.446655,60.695274 494.175354,60.844955 495.965973,60.927692 
	C495.792786,61.725414 495.798859,62.069111 495.651367,62.323883 
	C476.569519,95.281532 457.406555,128.192642 438.480988,161.239700 
	C436.346680,164.966599 434.002960,166.040283 429.860291,166.033936 
	C346.530823,165.906174 263.201080,165.937668 179.871384,165.937103 
	C178.168686,165.937088 176.465973,165.937103 174.299911,165.937103 
	C174.917053,167.395325 175.107651,168.021713 175.426636,168.573975 
	C188.401474,191.039017 201.526245,213.419525 214.250153,236.025650 
	C216.650055,240.289444 219.268066,241.529953 223.985382,241.514679 
	C278.315613,241.338715 332.646637,241.396820 386.977448,241.409134 
	C388.350922,241.409439 389.724304,241.597641 391.987000,241.763336 
	C359.845367,297.209198 328.133667,351.913391 295.991211,407.360626 
	C286.990936,391.817291 278.434021,377.039734 269.786285,362.105286 
	C264.337952,371.673431 259.065887,380.707794 254.094559,389.904663 
	C253.350555,391.281036 253.417175,393.723083 254.139801,395.149994 
	C256.541901,399.893341 259.442810,404.382080 262.101227,408.997955 
	C272.724579,427.443573 283.323334,445.903290 293.953735,464.344818 
	C294.549316,465.378052 295.346985,466.294739 296.254669,467.547272 
	C345.620911,382.155090 394.680878,297.292694 444.190094,211.653229 
	C441.558411,211.653229 439.797180,211.653198 438.035919,211.653229 
	C415.370239,211.653442 392.704590,211.653656 370.038910,211.653931 
	C326.540863,211.654449 283.042725,211.678665 239.544922,211.574677 
	C237.676819,211.570206 234.989014,210.945251 234.096878,209.641724 
	C231.250107,205.482193 229.070755,200.865891 226.239502,195.707855 
	C228.863190,195.707855 230.490860,195.707718 232.118530,195.707870 
	C304.115204,195.714676 376.111969,195.691605 448.108429,195.816040 
	C451.731171,195.822296 453.761658,194.799423 455.550720,191.621841 
	C465.423370,174.087021 475.437683,156.630325 485.564178,139.240433 
	C501.894196,111.197395 518.390747,83.251328 534.725708,55.211102 
	C539.381653,47.218815 543.721619,39.042469 548.677795,30.428244 
M138.500290,75.503105 
	C115.734581,75.503105 92.968880,75.503105 69.391838,75.503105 
	C74.224716,83.861031 78.965805,91.427559 83.034851,99.339699 
	C85.391319,103.921791 88.294762,105.395164 93.460411,105.387047 
	C199.792358,105.219986 306.124603,105.261192 412.456818,105.261024 
	C414.150299,105.261024 415.843811,105.261017 418.199646,105.261017 
	C416.044891,108.927444 414.177124,111.532295 412.905518,114.401360 
	C410.921234,118.878578 408.026489,120.317070 402.940521,120.307419 
	C302.275299,120.116257 201.609589,120.165512 100.943993,120.165932 
	C99.372536,120.165939 97.801079,120.165932 95.197403,120.165932 
	C144.962448,206.332291 194.216049,291.613129 243.559479,377.049469 
	C267.018188,336.848572 290.308411,296.936432 314.061615,256.230896 
	C302.723114,256.230896 292.891388,256.358459 283.066711,256.151672 
	C280.193298,256.091125 278.677826,257.101685 277.298187,259.481995 
	C266.782959,277.624512 256.158936,295.703979 245.545319,313.789307 
	C245.026581,314.673218 244.288696,315.428528 243.340683,316.643921 
	C211.462662,261.298126 179.873352,206.453568 147.953110,151.034470 
	C149.995560,151.034470 151.436279,151.034393 152.876984,151.034485 
	C213.876328,151.038177 274.875671,151.042511 335.875000,151.045303 
	C364.541351,151.046616 393.208466,150.945419 421.873230,151.160339 
	C425.817871,151.189926 428.010803,150.009628 429.588776,146.580887 
	C431.315887,142.828033 433.250458,139.154190 435.328918,135.582230 
	C446.295227,116.735954 457.339844,97.935257 468.338043,79.107513 
	C468.940338,78.076500 469.369965,76.944649 470.047546,75.503151 
	C359.458466,75.503151 249.479385,75.503151 138.500290,75.503105 
M294.762390,319.217987 
	C292.144745,323.662109 289.484406,328.081757 286.921112,332.557007 
	C284.206177,337.297089 279.574188,342.059113 279.500153,346.868774 
	C279.429749,351.444519 284.189819,356.079254 286.777344,360.715240 
	C289.798065,366.127350 292.766052,371.568909 295.848511,377.163971 
	C319.412170,336.760345 342.648499,296.918060 366.378326,256.229553 
	C354.835602,256.229553 345.012360,256.369080 335.197479,256.144165 
	C332.271545,256.077087 330.936005,257.293457 329.604340,259.584625 
	C318.158173,279.277679 306.612885,298.913086 294.762390,319.217987 
M242.122589,284.555481 
	C242.594650,285.169891 243.066711,285.784302 243.926270,286.903015 
	C249.878891,276.705017 255.580276,266.937408 261.721008,256.417114 
	C249.338013,256.417114 238.268936,256.417114 225.796158,256.417114 
	C231.377258,265.989624 236.589401,274.929321 242.122589,284.555481 
z"/>
<path fill="#BFBFBF"  opacity="1.000000" stroke="none" 
	d="
M548.206482,30.950523 
	C543.721619,39.042469 539.381653,47.218815 534.725708,55.211102 
	C518.390747,83.251328 501.894196,111.197395 485.564178,139.240433 
	C475.437683,156.630325 465.423370,174.087021 455.550720,191.621841 
	C453.761658,194.799423 451.731171,195.822296 448.108429,195.816040 
	C376.111969,195.691605 304.115204,195.714676 232.118530,195.707870 
	C230.490860,195.707718 228.863190,195.707855 226.239502,195.707855 
	C229.070755,200.865891 231.250107,205.482193 234.096878,209.641724 
	C234.989014,210.945251 237.676819,211.570206 239.544922,211.574677 
	C283.042725,211.678665 326.540863,211.654449 370.038910,211.653931 
	C392.704590,211.653656 415.370239,211.653442 438.035919,211.653229 
	C439.797180,211.653198 441.558411,211.653229 444.190094,211.653229 
	C394.680878,297.292694 345.620911,382.155090 296.254669,467.547272 
	C295.346985,466.294739 294.549316,465.378052 293.953735,464.344818 
	C283.323334,445.903290 272.724579,427.443573 262.101227,408.997955 
	C259.442810,404.382080 256.541901,399.893341 254.139801,395.149994 
	C253.417175,393.723083 253.350555,391.281036 254.094559,389.904663 
	C259.065887,380.707794 264.337952,371.673431 269.786285,362.105286 
	C278.434021,377.039734 286.990936,391.817291 295.991211,407.360626 
	C328.133667,351.913391 359.845367,297.209198 391.987000,241.763336 
	C389.724304,241.597641 388.350922,241.409439 386.977448,241.409134 
	C332.646637,241.396820 278.315613,241.338715 223.985382,241.514679 
	C219.268066,241.529953 216.650055,240.289444 214.250153,236.025650 
	C201.526245,213.419525 188.401474,191.039017 175.426636,168.573975 
	C175.107651,168.021713 174.917053,167.395325 174.299911,165.937103 
	C176.465973,165.937103 178.168686,165.937088 179.871384,165.937103 
	C263.201080,165.937668 346.530823,165.906174 429.860291,166.033936 
	C434.002960,166.040283 436.346680,164.966599 438.480988,161.239700 
	C457.406555,128.192642 476.569519,95.281532 495.651367,62.323883 
	C495.798859,62.069111 495.792786,61.725414 495.965973,60.927692 
	C494.175354,60.844955 492.446655,60.695274 490.717957,60.695137 
	C349.224152,60.683807 207.730331,60.666557 66.236610,60.770515 
	C62.102341,60.773552 59.691563,59.781784 57.675758,55.908413 
	C53.379520,47.653221 48.408554,39.749176 44.214661,31.367867 
	C45.818810,30.973570 46.922367,30.912649 48.261192,30.930429 
	C48.496452,31.009129 48.976627,30.884232 49.442009,30.955303 
	C206.678864,31.030659 363.450348,31.036469 520.221802,31.035400 
	C529.550049,31.035337 538.878235,30.980093 548.206482,30.950523 
z"/>
<path fill="#BFBFBF"  opacity="1.000000" stroke="none" 
	d="
M139.000305,75.503128 
	C249.479385,75.503151 359.458466,75.503151 470.047546,75.503151 
	C469.369965,76.944649 468.940338,78.076500 468.338043,79.107513 
	C457.339844,97.935257 446.295227,116.735954 435.328918,135.582230 
	C433.250458,139.154190 431.315887,142.828033 429.588776,146.580887 
	C428.010803,150.009628 425.817871,151.189926 421.873230,151.160339 
	C393.208466,150.945419 364.541351,151.046616 335.875000,151.045303 
	C274.875671,151.042511 213.876328,151.038177 152.876984,151.034485 
	C151.436279,151.034393 149.995560,151.034470 147.953110,151.034470 
	C179.873352,206.453568 211.462662,261.298126 243.340683,316.643921 
	C244.288696,315.428528 245.026581,314.673218 245.545319,313.789307 
	C256.158936,295.703979 266.782959,277.624512 277.298187,259.481995 
	C278.677826,257.101685 280.193298,256.091125 283.066711,256.151672 
	C292.891388,256.358459 302.723114,256.230896 314.061615,256.230896 
	C290.308411,296.936432 267.018188,336.848572 243.559479,377.049469 
	C194.216049,291.613129 144.962448,206.332291 95.197403,120.165932 
	C97.801079,120.165932 99.372536,120.165939 100.943993,120.165932 
	C201.609589,120.165512 302.275299,120.116257 402.940521,120.307419 
	C408.026489,120.317070 410.921234,118.878578 412.905518,114.401360 
	C414.177124,111.532295 416.044891,108.927444 418.199646,105.261017 
	C415.843811,105.261017 414.150299,105.261024 412.456818,105.261024 
	C306.124603,105.261192 199.792358,105.219986 93.460411,105.387047 
	C88.294762,105.395164 85.391319,103.921791 83.034851,99.339699 
	C78.965805,91.427559 74.224716,83.861031 69.391838,75.503105 
	C92.968880,75.503105 115.734581,75.503105 139.000305,75.503128 
z"/>
<path fill="#BFBFBF"  opacity="1.000000" stroke="none" 
	d="
M294.929779,318.891846 
	C306.612885,298.913086 318.158173,279.277679 329.604340,259.584625 
	C330.936005,257.293457 332.271545,256.077087 335.197479,256.144165 
	C345.012360,256.369080 354.835602,256.229553 366.378326,256.229553 
	C342.648499,296.918060 319.412170,336.760345 295.848511,377.163971 
	C292.766052,371.568909 289.798065,366.127350 286.777344,360.715240 
	C284.189819,356.079254 279.429749,351.444519 279.500153,346.868774 
	C279.574188,342.059113 284.206177,337.297089 286.921112,332.557007 
	C289.484406,328.081757 292.144745,323.662109 294.929779,318.891846 
z"/>
<path fill="#BFBFBF" opacity="1.000000" stroke="none" 
	d="
M548.442139,30.689384 
	C538.878235,30.980093 529.550049,31.035337 520.221802,31.035400 
	C363.450348,31.036469 206.678864,31.030659 49.360680,30.801058 
	C48.551289,30.667738 48.288609,30.759735 48.025928,30.851730 
	C46.922367,30.912649 45.818810,30.973570 44.300495,31.004023 
	C43.991028,30.357716 44.030109,29.230366 44.212055,29.206818 
	C45.690090,29.015520 47.194874,28.989323 48.691513,28.989302 
	C213.664520,28.986952 378.637543,28.986994 543.610535,29.054541 
	C545.299805,29.055231 546.988708,29.950565 548.442139,30.689384 
z"/>
<path fill="#BFBFBF"  opacity="1.000000" stroke="none" 
	d="
M241.962067,284.212250 
	C236.589401,274.929321 231.377258,265.989624 225.796158,256.417114 
	C238.268936,256.417114 249.338013,256.417114 261.721008,256.417114 
	C255.580276,266.937408 249.878891,276.705017 243.926270,286.903015 
	C243.066711,285.784302 242.594650,285.169891 241.962067,284.212250 
z"/>

</svg>